<svg xmlns="http://www.w3.org/2000/svg" width="1600" height="700" viewBox="0 0 1600 700" role="img" aria-labelledby="title desc"><title id="title">AdLinker version one and version two comparison</title><desc id="desc">Two diagonal links with an integrated upward-right arrow connect advertising with conversion growth. A green i dot represents a data signal. AdLinker wordmark in outlined Manrope.</desc><rect x="0" y="0" width="1600" height="700" rx="0" fill="#FFFFFF"/><path fill="#122C2A" d="M72.44 76.0 77.434 60.16H81.31700000000001L86.311 76.0H83.583L79.051 61.788H79.645L75.168 76.0ZM75.223 72.568V70.093H83.539V72.568ZM90.29100000000001 76.0V60.16H95.34Q95.53800000000001 60.16 96.12650000000001 60.171Q96.715 60.182 97.265 60.248000000000005Q99.146 60.49 100.4495 61.584500000000006Q101.753 62.679 102.424 64.373Q103.095 66.06700000000001 103.095 68.08Q103.095 70.093 102.424 71.787Q101.753 73.481 100.4495 74.5755Q99.146 75.67 97.265 75.912Q96.726 75.978 96.132 75.989Q95.53800000000001 76.0 95.34 76.0ZM92.986 73.503H95.34Q95.67 73.503 96.1815 73.481Q96.693 73.459 97.089 73.382Q98.211 73.173 98.91499999999999 72.381Q99.619 71.589 99.9545 70.456Q100.29 69.32300000000001 100.29 68.08Q100.29 66.793 99.94900000000001 65.66Q99.608 64.527 98.89850000000001 63.757000000000005Q98.18900000000001 62.987 97.089 62.778Q96.693 62.69 96.1815 62.6735Q95.67 62.657 95.34 62.657H92.986ZM107.92200000000001 76.0V60.16H110.57300000000001V73.514H117.569V76.0ZM121.659 76.0V60.16H124.31V76.0ZM129.60999999999999 76.0V60.16H132.29399999999998L139.642 71.325V60.16H142.326V76.0H139.642L132.29399999999998 64.83500000000001V76.0ZM147.40599999999998 76.0V60.16H150.057V67.508L156.38199999999998 60.16H159.63799999999998L152.82899999999998 67.926L160.1 76.0H156.73399999999998L150.057 68.608V76.0ZM163.64 76.0V60.16H173.87V62.646H166.291V66.551H172.54999999999998V69.037H166.291V73.514H173.87V76.0ZM178.51 76.0V60.16H185.055Q185.286 60.16 185.649 60.1765Q186.012 60.193 186.32 60.248000000000005Q187.695 60.457 188.5915 61.161Q189.488 61.865 189.9225 62.9375Q190.357 64.01 190.357 65.319Q190.357 67.255 189.378 68.6465Q188.399 70.038 186.375 70.368L185.242 70.467H181.161V76.0ZM187.607 76.0 184.483 69.554 187.178 68.96000000000001 190.60999999999999 76.0ZM181.161 67.992H184.945Q185.165 67.992 185.44 67.97Q185.715 67.94800000000001 185.946 67.882Q186.606 67.717 186.9855 67.299Q187.365 66.881 187.5245 66.35300000000001Q187.684 65.825 187.684 65.319Q187.684 64.813 187.5245 64.2795Q187.365 63.746 186.9855 63.328Q186.606 62.91 185.946 62.745000000000005Q185.715 62.679 185.44 62.6625Q185.165 62.646 184.945 62.646H181.161ZM205.43400000000003 60.16H208.096L203.872 76.0H201.21ZM219.35600000000002 76.0V60.16H229.58600000000004V62.646H222.00700000000003V66.551H228.26600000000002V69.037H222.00700000000003V73.514H229.58600000000004V76.0ZM237.79000000000005 76.0 232.79600000000005 60.16H235.52400000000003L239.70400000000004 73.426L243.93900000000002 60.16H246.66700000000003L241.67300000000003 76.0ZM257.016 76.33Q254.64000000000004 76.33 252.94600000000003 75.29050000000001Q251.25200000000004 74.251 250.34450000000004 72.392Q249.43700000000004 70.533 249.43700000000004 68.08Q249.43700000000004 65.627 250.34450000000004 63.768Q251.25200000000004 61.909 252.94600000000003 60.8695Q254.64000000000004 59.83 257.016 59.83Q259.39200000000005 59.83 261.09150000000005 60.8695Q262.79100000000005 61.909 263.6985000000001 63.768Q264.60600000000005 65.627 264.60600000000005 68.08Q264.60600000000005 70.533 263.6985000000001 72.392Q262.79100000000005 74.251 261.09150000000005 75.29050000000001Q259.39200000000005 76.33 257.016 76.33ZM257.016 73.833Q258.61100000000005 73.844 259.6725 73.12899999999999Q260.73400000000004 72.414 261.26750000000004 71.116Q261.80100000000004 69.818 261.80100000000004 68.08Q261.80100000000004 66.342 261.26750000000004 65.06049999999999Q260.73400000000004 63.778999999999996 259.6725 63.064Q258.61100000000005 62.349000000000004 257.016 62.327Q255.42100000000005 62.316 254.36500000000007 63.031000000000006Q253.30900000000005 63.746 252.77550000000005 65.044Q252.24200000000005 66.342 252.24200000000005 68.08Q252.24200000000005 69.818 252.77000000000004 71.0995Q253.29800000000003 72.381 254.35950000000003 73.096Q255.42100000000005 73.811 257.016 73.833ZM269.026 76.0V60.16H271.677V73.514H278.673V76.0ZM288.92300000000006 76.33Q287.03100000000006 76.33 285.5955 75.56Q284.16 74.79 283.35150000000004 73.393Q282.54300000000006 71.996 282.54300000000006 70.115V60.182L285.22700000000003 60.16V70.049Q285.22700000000003 70.94 285.52950000000004 71.644Q285.83200000000005 72.348 286.34900000000005 72.8375Q286.86600000000004 73.327 287.53700000000003 73.58Q288.208 73.833 288.92300000000006 73.833Q289.66 73.833 290.32550000000003 73.5745Q290.99100000000004 73.316 291.50800000000004 72.82650000000001Q292.02500000000003 72.337 292.322 71.63300000000001Q292.619 70.929 292.619 70.049V60.16H295.30300000000005V70.115Q295.30300000000005 71.996 294.4945 73.393Q293.68600000000004 74.79 292.25050000000005 75.56Q290.81500000000005 76.33 288.92300000000006 76.33ZM304.189 76.0V62.646H299.06300000000005V60.16H311.966V62.646H306.84000000000003V76.0ZM315.946 76.0V60.16H318.59700000000004V76.0ZM330.596 76.33Q328.22 76.33 326.52600000000007 75.29050000000001Q324.83200000000005 74.251 323.9245000000001 72.392Q323.01700000000005 70.533 323.01700000000005 68.08Q323.01700000000005 65.627 323.9245000000001 63.768Q324.83200000000005 61.909 326.52600000000007 60.8695Q328.22 59.83 330.596 59.83Q332.97200000000004 59.83 334.67150000000004 60.8695Q336.37100000000004 61.909 337.2785 63.768Q338.18600000000004 65.627 338.18600000000004 68.08Q338.18600000000004 70.533 337.2785 72.392Q336.37100000000004 74.251 334.67150000000004 75.29050000000001Q332.97200000000004 76.33 330.596 76.33ZM330.596 73.833Q332.19100000000003 73.844 333.25250000000005 73.12899999999999Q334.314 72.414 334.8475 71.116Q335.38100000000003 69.818 335.38100000000003 68.08Q335.38100000000003 66.342 334.8475 65.06049999999999Q334.314 63.778999999999996 333.25250000000005 63.064Q332.19100000000003 62.349000000000004 330.596 62.327Q329.00100000000003 62.316 327.94500000000005 63.031000000000006Q326.889 63.746 326.3555 65.044Q325.822 66.342 325.822 68.08Q325.822 69.818 326.35 71.0995Q326.87800000000004 72.381 327.93950000000007 73.096Q329.00100000000003 73.811 330.596 73.833ZM342.386 76.0V60.16H345.07L352.418 71.325V60.16H355.102V76.0H352.418L345.07 64.83500000000001V76.0Z"/><rect x="72" y="107" width="1456" height="1" rx="0" fill="#E2ECE8"/><path fill="#657C78" d="M114.935 182.225Q113.7875 182.225 112.91 181.73375Q112.0325 181.2425 111.54124999999999 180.365Q111.05 179.4875 111.05 178.34V174.86Q111.05 173.7125 111.54124999999999 172.835Q112.0325 171.9575 112.91 171.46625Q113.7875 170.975 114.935 170.975Q116.0825 170.975 116.95625 171.46625Q117.83 171.9575 118.32499999999999 172.835Q118.82 173.7125 118.82 174.86V178.34Q118.82 179.4875 118.32499999999999 180.365Q117.83 181.2425 116.95625 181.73375Q116.0825 182.225 114.935 182.225ZM114.935 180.5075Q115.505 180.5075 115.97 180.23375Q116.435 179.96 116.705 179.49875Q116.975 179.0375 116.975 178.4675V174.725Q116.975 174.1475 116.705 173.68625Q116.435 173.225 115.97 172.95125000000002Q115.505 172.6775 114.935 172.6775Q114.365 172.6775 113.9 172.95125000000002Q113.435 173.225 113.16499999999999 173.68625Q112.895 174.1475 112.895 174.725V178.4675Q112.895 179.0375 113.16499999999999 179.49875Q113.435 179.96 113.9 180.23375Q114.365 180.5075 114.935 180.5075ZM123.795 182.0V173.1725L121.77000000000001 174.41V172.415L123.795 171.2H125.64V182.0ZM136.22 171.2H138.035L135.155 182.0H133.34ZM149.5525 182.225Q147.9325 182.225 146.7775 181.51625Q145.6225 180.8075 145.00375 179.54000000000002Q144.385 178.2725 144.385 176.6Q144.385 174.9275 145.00375 173.66000000000003Q145.6225 172.3925 146.7775 171.68375Q147.9325 170.975 149.5525 170.975Q151.1725 170.975 152.33125 171.68375Q153.49 172.3925 154.10875 173.66000000000003Q154.7275 174.9275 154.7275 176.6Q154.7275 178.2725 154.10875 179.54000000000002Q153.49 180.8075 152.33125 181.51625Q151.1725 182.225 149.5525 182.225ZM149.5525 180.5225Q150.64000000000001 180.53 151.36375 180.04250000000002Q152.0875 179.555 152.45125000000002 178.67000000000002Q152.815 177.785 152.815 176.6Q152.815 175.415 152.45125000000002 174.54125Q152.0875 173.6675 151.36375 173.18Q150.64000000000001 172.6925 149.5525 172.6775Q148.465 172.67 147.745 173.1575Q147.025 173.645 146.66125 174.53Q146.2975 175.415 146.2975 176.6Q146.2975 177.785 146.65750000000003 178.65875Q147.0175 179.5325 147.74125 180.01999999999998Q148.465 180.5075 149.5525 180.5225ZM157.22750000000002 182.0V171.2H161.69Q161.8475 171.2 162.095 171.21125Q162.3425 171.2225 162.5525 171.26Q163.49 171.4025 164.10125 171.8825Q164.7125 172.3625 165.00875000000002 173.09375Q165.305 173.825 165.305 174.7175Q165.305 176.0375 164.6375 176.98624999999998Q163.97 177.935 162.59 178.16L161.8175 178.2275H159.035V182.0ZM163.43 182.0 161.3 177.605 163.13750000000002 177.2 165.47750000000002 182.0ZM159.035 176.54H161.615Q161.76500000000001 176.54 161.95250000000001 176.52499999999998Q162.14000000000001 176.51 162.2975 176.465Q162.7475 176.3525 163.00625000000002 176.0675Q163.26500000000001 175.7825 163.37375000000003 175.4225Q163.48250000000002 175.0625 163.48250000000002 174.7175Q163.48250000000002 174.3725 163.37375000000003 174.00875000000002Q163.26500000000001 173.645 163.00625000000002 173.36Q162.7475 173.075 162.2975 172.9625Q162.14000000000001 172.9175 161.95250000000001 172.90625Q161.76500000000001 172.895 161.615 172.895H159.035ZM168.2775 182.0V171.2H170.085V182.0ZM177.79000000000002 182.225Q176.74000000000004 182.225 175.82125000000002 181.85375Q174.90250000000003 181.4825 174.20875 180.7625Q173.51500000000001 180.0425 173.125 178.99624999999997Q172.735 177.95 172.735 176.6Q172.735 174.83 173.39500000000004 173.57375000000002Q174.05500000000004 172.3175 175.20250000000004 171.64625Q176.35000000000002 170.975 177.79000000000002 170.975Q179.78500000000003 170.975 180.95125000000002 171.90125Q182.11750000000004 172.8275 182.53000000000003 174.5L180.68500000000003 174.7925Q180.37750000000003 173.8325 179.68 173.25875000000002Q178.98250000000002 172.685 177.90250000000003 172.685Q176.81500000000003 172.67 176.09500000000003 173.1575Q175.37500000000003 173.645 175.01125000000002 174.53Q174.64750000000004 175.415 174.64750000000004 176.6Q174.64750000000004 177.785 175.00750000000005 178.65875Q175.36750000000004 179.5325 176.09125000000003 180.01999999999998Q176.81500000000003 180.5075 177.90250000000003 180.5225Q178.72000000000003 180.53 179.33500000000004 180.22625Q179.95000000000002 179.9225 180.34000000000003 179.30375Q180.73000000000002 178.685 180.86500000000004 177.755H178.96000000000004V176.3375H182.78500000000003Q182.8 176.4575 182.8075 176.69Q182.81500000000003 176.9225 182.81500000000003 176.9675Q182.81500000000003 178.4975 182.21125 179.68625Q181.60750000000002 180.875 180.48250000000002 181.55Q179.35750000000002 182.225 177.79000000000002 182.225ZM185.465 182.0V171.2H187.2725V182.0ZM190.52250000000004 182.0V171.2H192.35250000000002L197.3625 178.8125V171.2H199.19250000000002V182.0H197.3625L192.35250000000002 174.3875V182.0ZM201.54250000000005 182.0 204.94750000000005 171.2H207.59500000000003L211.00000000000003 182.0H209.14000000000004L206.05000000000004 172.31H206.45500000000004L203.40250000000003 182.0ZM203.44000000000003 179.66V177.9725H209.11000000000004V179.66ZM213.50000000000003 182.0V171.2H215.30750000000003V180.305H220.07750000000004V182.0Z"/><path fill="#00AA86" d="M874.935 182.225Q873.7875 182.225 872.9100000000001 181.73375Q872.0325 181.2425 871.54125 180.365Q871.05 179.4875 871.05 178.34V174.86Q871.05 173.7125 871.54125 172.835Q872.0325 171.9575 872.9100000000001 171.46625Q873.7875 170.975 874.935 170.975Q876.0825 170.975 876.95625 171.46625Q877.83 171.9575 878.325 172.835Q878.82 173.7125 878.82 174.86V178.34Q878.82 179.4875 878.325 180.365Q877.83 181.2425 876.95625 181.73375Q876.0825 182.225 874.935 182.225ZM874.935 180.5075Q875.505 180.5075 875.97 180.23375Q876.435 179.96 876.7049999999999 179.49875Q876.975 179.0375 876.975 178.4675V174.725Q876.975 174.1475 876.7049999999999 173.68625Q876.435 173.225 875.97 172.95125000000002Q875.505 172.6775 874.935 172.6775Q874.365 172.6775 873.9 172.95125000000002Q873.435 173.225 873.165 173.68625Q872.895 174.1475 872.895 174.725V178.4675Q872.895 179.0375 873.165 179.49875Q873.435 179.96 873.9 180.23375Q874.365 180.5075 874.935 180.5075ZM881.62 181.985V180.41L886.24 176.2925Q886.78 175.8125 886.99 175.385Q887.2 174.9575 887.2 174.56Q887.2 174.02 886.9675 173.59625Q886.735 173.1725 886.3262500000001 172.925Q885.9175 172.6775 885.385 172.6775Q884.8225 172.6775 884.39125 172.93625Q883.96 173.195 883.72 173.6225Q883.48 174.05 883.495 174.545H881.635Q881.635 173.465 882.11875 172.66250000000002Q882.6025 171.86 883.4537499999999 171.41750000000002Q884.305 170.975 885.4225 170.975Q886.4575 170.975 887.2825 171.43625Q888.1075 171.8975 888.5799999999999 172.71125Q889.0525 173.525 889.0525 174.5825Q889.0525 175.355 888.8425 175.88Q888.6325 176.405 888.21625 176.8475Q887.8 177.29 887.1850000000001 177.83L883.9075 180.7325L883.7425 180.2825H889.0525V181.985ZM898.5825 171.2H900.3975L897.5175 182.0H895.7025ZM907.4975000000001 182.0V171.2H909.3050000000001V180.305H914.075V182.0ZM916.5000000000001 182.0V171.2H918.3075000000001V182.0ZM921.5575 182.0V171.2H923.3875L928.3975 178.8125V171.2H930.2275000000001V182.0H928.3975L923.3875 174.3875V182.0ZM933.3275 182.0V171.2H935.135V176.21L939.4475 171.2H941.6675L937.025 176.495L941.9825000000001 182.0H939.6875L935.135 176.96V182.0ZM950.5675000000001 179.99V177.305H947.8825V175.8875H950.5675000000001V173.21H951.9850000000001V175.8875H954.6550000000001V177.305H951.9850000000001V179.99ZM966.0600000000001 182.225Q965.0100000000001 182.225 964.0912500000001 181.85375Q963.1725 181.4825 962.47875 180.7625Q961.7850000000001 180.0425 961.3950000000001 178.99624999999997Q961.0050000000001 177.95 961.0050000000001 176.6Q961.0050000000001 174.83 961.6650000000001 173.57375000000002Q962.325 172.3175 963.4725000000001 171.64625Q964.6200000000001 170.975 966.0600000000001 170.975Q968.0550000000001 170.975 969.22125 171.90125Q970.3875 172.8275 970.8000000000001 174.5L968.955 174.7925Q968.6475 173.8325 967.95 173.25875000000002Q967.2525 172.685 966.1725 172.685Q965.085 172.67 964.365 173.1575Q963.6450000000001 173.645 963.28125 174.53Q962.9175 175.415 962.9175 176.6Q962.9175 177.785 963.2775 178.65875Q963.6375 179.5325 964.36125 180.01999999999998Q965.085 180.5075 966.1725 180.5225Q966.99 180.53 967.605 180.22625Q968.22 179.9225 968.6100000000001 179.30375Q969.0000000000001 178.685 969.1350000000001 177.755H967.23V176.3375H971.0550000000001Q971.07 176.4575 971.0775000000001 176.69Q971.085 176.9225 971.085 176.9675Q971.085 178.4975 970.48125 179.68625Q969.8775 180.875 968.7525 181.55Q967.6275 182.225 966.0600000000001 182.225ZM973.585 182.0V171.2H978.0475000000001Q978.205 171.2 978.4525000000001 171.21125Q978.7 171.2225 978.9100000000001 171.26Q979.8475000000001 171.4025 980.45875 171.8825Q981.07 172.3625 981.36625 173.09375Q981.6625000000001 173.825 981.6625000000001 174.7175Q981.6625000000001 176.0375 980.9950000000001 176.98624999999998Q980.3275000000001 177.935 978.9475000000001 178.16L978.1750000000001 178.2275H975.3925V182.0ZM979.7875000000001 182.0 977.6575 177.605 979.4950000000001 177.2 981.835 182.0ZM975.3925 176.54H977.9725000000001Q978.1225000000001 176.54 978.3100000000001 176.52499999999998Q978.4975000000001 176.51 978.6550000000001 176.465Q979.1050000000001 176.3525 979.3637500000001 176.0675Q979.6225000000001 175.7825 979.73125 175.4225Q979.84 175.0625 979.84 174.7175Q979.84 174.3725 979.73125 174.00875000000002Q979.6225000000001 173.645 979.3637500000001 173.36Q979.1050000000001 173.075 978.6550000000001 172.9625Q978.4975000000001 172.9175 978.3100000000001 172.90625Q978.1225000000001 172.895 977.9725000000001 172.895H975.3925ZM989.0525 182.225Q987.4325 182.225 986.2775 181.51625Q985.1225000000001 180.8075 984.5037500000001 179.54000000000002Q983.8850000000001 178.2725 983.8850000000001 176.6Q983.8850000000001 174.9275 984.5037500000001 173.66000000000003Q985.1225000000001 172.3925 986.2775 171.68375Q987.4325 170.975 989.0525 170.975Q990.6725 170.975 991.83125 171.68375Q992.99 172.3925 993.6087500000001 173.66000000000003Q994.2275000000001 174.9275 994.2275000000001 176.6Q994.2275000000001 178.2725 993.6087500000001 179.54000000000002Q992.99 180.8075 991.83125 181.51625Q990.6725 182.225 989.0525 182.225ZM989.0525 180.5225Q990.1400000000001 180.53 990.8637500000001 180.04250000000002Q991.5875000000001 179.555 991.9512500000001 178.67000000000002Q992.315 177.785 992.315 176.6Q992.315 175.415 991.9512500000001 174.54125Q991.5875000000001 173.6675 990.8637500000001 173.18Q990.1400000000001 172.6925 989.0525 172.6775Q987.965 172.67 987.2450000000001 173.1575Q986.5250000000001 173.645 986.1612500000001 174.53Q985.7975 175.415 985.7975 176.6Q985.7975 177.785 986.1575 178.65875Q986.5175 179.5325 987.24125 180.01999999999998Q987.965 180.5075 989.0525 180.5225ZM999.0075 182.0 995.85 171.2H997.7475000000001L999.9 179.0L1002.045 171.215L1003.9425 171.2L1006.095 179.0L1008.24 171.2H1010.1375L1006.9875 182.0H1005.2025L1002.99 174.32L1000.7925 182.0ZM1014.955 182.0V172.895H1011.46V171.2H1020.2575V172.895H1016.7625V182.0ZM1022.4575 182.0V171.2H1024.265V175.745H1029.38V171.2H1031.18V182.0H1029.38V177.44H1024.265V182.0Z"/><rect x="800" y="160" width="1" height="460" rx="0" fill="#E2ECE8"/><g transform="translate(110 264) scale(1.2)"><g transform="translate(0 2)"><defs><mask id="logo-cut" maskUnits="userSpaceOnUse" x="0" y="0" width="96" height="100"><rect width="96" height="100" fill="white"/><path d="M46 65L36 75Q26 85 16 75Q6 65 16 55L32 39Q42 29 52 39" fill="none" stroke="black" stroke-width="18" stroke-linecap="butt" stroke-linejoin="round"/></mask></defs>
<g fill="none" stroke-width="13" stroke-linecap="butt" stroke-linejoin="round"><path d="M50 35L60 25Q70 15 80 25Q90 35 80 45L64 61Q54 71 44 61" stroke="#00AA86" mask="url(#logo-cut)"/><path d="M46 65L36 75Q26 85 16 75Q6 65 16 55L32 39Q42 29 52 39" stroke="#122C2A"/></g></g><path fill="#122C2A" d="M126.64 82.0 145.131 22.96H160.055L178.546 82.0H168.132L151.404 29.192H153.577L137.095 82.0ZM137.095 69.28999999999999V59.819H168.132V69.28999999999999ZM201.62 83.23Q195.51100000000002 83.23 190.96000000000004 80.155Q186.40900000000002 77.08 183.88750000000002 71.791Q181.366 66.502 181.366 59.86Q181.366 53.135999999999996 183.90800000000002 47.846999999999994Q186.45000000000002 42.558 191.1035 39.524Q195.757 36.489999999999995 202.03000000000003 36.489999999999995Q208.34400000000002 36.489999999999995 212.62850000000003 39.565Q216.913 42.64 219.127 47.908500000000004Q221.341 53.177 221.341 59.86Q221.341 66.502 219.127 71.791Q216.913 77.08 212.526 80.155Q208.139 83.23 201.62 83.23ZM203.17800000000003 74.169Q207.114 74.169 209.5125 72.36500000000001Q211.911 70.561 213.018 67.322Q214.125 64.083 214.125 59.86Q214.125 55.596000000000004 213.018 52.3775Q211.911 49.159 209.5945 47.355000000000004Q207.27800000000002 45.551 203.54700000000003 45.551Q199.61100000000002 45.551 197.06900000000002 47.478Q194.52700000000002 49.405 193.3175 52.644Q192.108 55.882999999999996 192.108 59.86Q192.108 63.837 193.29700000000003 67.09649999999999Q194.48600000000002 70.356 196.9255 72.26249999999999Q199.365 74.169 203.17800000000003 74.169ZM214.125 82.0V51.045H212.854V22.96H223.06300000000002V82.0ZM233.263 82.0V22.96H243.39000000000001V72.529H269.343V82.0ZM275.033 31.119V21.894H285.16V31.119ZM275.033 82.0V37.72H285.16V82.0ZM325.90500000000003 82.0V60.762Q325.90500000000003 58.794 325.6385 56.293Q325.372 53.792 324.3675 51.4345Q323.363 49.077 321.313 47.5395Q319.26300000000003 46.001999999999995 315.737 46.001999999999995Q313.933 46.001999999999995 312.129 46.57599999999999Q310.325 47.15 308.849 48.6055Q307.373 50.061 306.471 52.644000000000005Q305.569 55.227000000000004 305.569 59.286L299.583 56.703Q299.583 51.126999999999995 301.75600000000003 46.535Q303.92900000000003 41.943 308.193 39.196Q312.457 36.449 318.771 36.449Q323.732 36.449 326.95050000000003 38.1095Q330.169 39.769999999999996 332.0345 42.352999999999994Q333.9 44.936 334.7815 47.806Q335.663 50.676 335.909 53.218Q336.15500000000003 55.76 336.15500000000003 57.236000000000004V82.0ZM295.278 82.0V37.72H304.298V51.66H305.569V82.0ZM344.63300000000004 82.0 344.71500000000003 22.96H354.96500000000003V59.04L370.95500000000004 37.72H383.583L366.60900000000004 59.86L384.97700000000003 82.0H371.61100000000005L354.96500000000003 60.68V82.0ZM407.19 83.23Q400.466 83.23 395.3615 80.319Q390.257 77.408 387.387 72.24199999999999Q384.517 67.076 384.517 60.352000000000004Q384.517 53.095 387.32550000000003 47.7445Q390.134 42.394 395.1155 39.44199999999999Q400.09700000000004 36.489999999999995 406.61600000000004 36.489999999999995Q413.504 36.489999999999995 418.342 39.7085Q423.18 42.927 425.51700000000005 48.810500000000005Q427.85400000000004 54.694 427.23900000000003 62.689H417.194V58.998999999999995Q417.153 51.864999999999995 414.73400000000004 48.60549999999999Q412.31500000000005 45.346 407.026 45.346Q401.04 45.346 398.1495 49.036Q395.259 52.726 395.259 59.86Q395.259 66.502 398.1495 70.1305Q401.04 73.759 406.61600000000004 73.759Q410.18300000000005 73.759 412.7660000000001 72.16Q415.34900000000005 70.561 416.74300000000005 67.568L426.788 70.561Q424.24600000000004 76.588 418.91600000000005 79.90899999999999Q413.586 83.23 407.19 83.23ZM392.06100000000004 62.689V55.063H422.319V62.689ZM434.36400000000003 82.0V37.72H443.302V48.503L442.23600000000005 47.109Q443.09700000000004 44.894999999999996 444.4705 43.05Q445.84400000000005 41.205 447.812 40.016Q449.452 38.909 451.42 38.314499999999995Q453.38800000000003 37.72 455.4585 37.576499999999996Q457.529 37.433 459.497 37.72V47.190999999999995Q457.57000000000005 46.617 455.028 46.822Q452.48600000000005 47.027 450.43600000000004 48.175Q448.427 49.241 447.115 50.922Q445.803 52.602999999999994 445.188 54.7555Q444.57300000000004 56.908 444.57300000000004 59.491V82.0Z"/></g><g transform="translate(870 264) scale(1.2)"><g transform="translate(0 2)"><defs><mask id="v2-compare-cut" maskUnits="userSpaceOnUse" x="0" y="0" width="96" height="100"><rect width="96" height="100" fill="white"/><path d="M46 65L36 75Q26 85 16 75Q6 65 16 55L32 39Q42 29 52 39" fill="none" stroke="black" stroke-width="18" stroke-linecap="butt" stroke-linejoin="round"/></mask></defs>
<g fill="none" stroke-width="13" stroke-linecap="butt" stroke-linejoin="round"><path d="M50 35L60 25Q70 15 80 25 M44 61Q54 71 64 61L86 39" stroke="#00AA86" mask="url(#v2-compare-cut)"/><path d="M46 65L36 75Q26 85 16 75Q6 65 16 55L32 39Q42 29 52 39" stroke="#122C2A"/></g><path d="M70 30H89Q93 30 93 34V53Z" fill="#00AA86"/></g><path fill="#122C2A" d="M122.64 82.0 141.254 22.96H155.727L174.341 82.0H164.173L147.281 29.028H149.495L132.808 82.0ZM133.013 69.208V59.983000000000004H164.00900000000001V69.208ZM197.974 83.23Q191.865 83.23 187.31400000000002 80.155Q182.763 77.08 180.262 71.791Q177.761 66.502 177.761 59.86Q177.761 53.135999999999996 180.2825 47.86749999999999Q182.804 42.599 187.437 39.5445Q192.07 36.489999999999995 198.343 36.489999999999995Q204.65699999999998 36.489999999999995 208.9415 39.5445Q213.226 42.599 215.44 47.888Q217.654 53.177 217.654 59.86Q217.654 66.461 215.44 71.7705Q213.226 77.08 208.839 80.155Q204.452 83.23 197.974 83.23ZM199.49099999999999 74.374Q203.468 74.374 205.90749999999997 72.5495Q208.34699999999998 70.725 209.47449999999998 67.445Q210.602 64.16499999999999 210.602 59.86Q210.602 55.513999999999996 209.47449999999998 52.25449999999999Q208.34699999999998 48.995 205.969 47.1705Q203.591 45.346 199.819 45.346Q195.84199999999998 45.346 193.259 47.293499999999995Q190.676 49.241 189.446 52.5415Q188.216 55.842 188.216 59.86Q188.216 63.919 189.4255 67.2195Q190.635 70.52 193.136 72.447Q195.637 74.374 199.49099999999999 74.374ZM210.602 82.0V50.922H209.37199999999999V22.96H219.33499999999998V82.0ZM230.135 82.0V22.96H240.016V72.734H266.092V82.0ZM272.382 30.995999999999995V21.934999999999995H282.263V30.995999999999995ZM272.382 82.0V37.72H282.263V82.0ZM323.69 82.0V60.68Q323.69 58.589 323.403 56.047Q323.116 53.504999999999995 322.0705 51.147499999999994Q321.025 48.79 318.95449999999994 47.272999999999996Q316.88399999999996 45.756 313.358 45.756Q311.472 45.756 309.62699999999995 46.370999999999995Q307.782 46.986 306.28549999999996 48.4825Q304.789 49.979 303.88699999999994 52.582499999999996Q302.98499999999996 55.186 302.98499999999996 59.245L297.12199999999996 56.744Q297.12199999999996 51.086 299.31549999999993 46.494Q301.50899999999996 41.902 305.77299999999997 39.1755Q310.037 36.449 316.269 36.449Q321.18899999999996 36.449 324.38699999999994 38.089Q327.585 39.729 329.471 42.271Q331.35699999999997 44.812999999999995 332.259 47.68299999999999Q333.161 50.553 333.4275 53.1155Q333.69399999999996 55.678 333.69399999999996 57.277V82.0ZM292.981 82.0V37.72H301.796V51.455H302.98499999999996V82.0ZM342.772 82.0 342.854 22.96H352.85799999999995V59.04L369.053 37.72H381.394L364.215 59.86L382.87 82.0H369.791L352.85799999999995 60.68V82.0ZM405.60099999999994 83.23Q398.87699999999995 83.23 393.79299999999995 80.319Q388.70899999999995 77.408 385.8594999999999 72.24199999999999Q383.00999999999993 67.076 383.00999999999993 60.352000000000004Q383.00999999999993 53.095 385.79799999999994 47.7445Q388.58599999999996 42.394 393.54699999999997 39.44199999999999Q398.508 36.489999999999995 405.027 36.489999999999995Q411.91499999999996 36.489999999999995 416.73249999999996 39.7085Q421.54999999999995 42.927 423.88699999999994 48.79Q426.22399999999993 54.653 425.65 62.607H415.85099999999994V58.998999999999995Q415.80999999999995 51.783 413.30899999999997 48.462Q410.808 45.141 405.43699999999995 45.141Q399.36899999999997 45.141 396.417 48.8925Q393.465 52.644 393.465 59.86Q393.465 66.584 396.417 70.274Q399.36899999999997 73.964 405.027 73.964Q408.676 73.964 411.3205 72.3445Q413.965 70.725 415.4 67.65L425.15799999999996 70.602Q422.616 76.588 417.30649999999997 79.90899999999999Q411.99699999999996 83.23 405.60099999999994 83.23ZM390.34899999999993 62.607V55.144999999999996H420.81199999999995V62.607ZM433.33399999999995 82.0V37.72H442.06699999999995V48.503L441.0009999999999 47.109Q441.8209999999999 44.894999999999996 443.19449999999995 43.070499999999996Q444.5679999999999 41.245999999999995 446.49499999999995 40.056999999999995Q448.13499999999993 38.949999999999996 450.1234999999999 38.314499999999995Q452.11199999999997 37.678999999999995 454.203 37.5355Q456.2939999999999 37.391999999999996 458.26199999999994 37.72V46.945Q456.2939999999999 46.370999999999995 453.7314999999999 46.57599999999999Q451.1689999999999 46.781 449.1189999999999 48.010999999999996Q447.06899999999996 49.118 445.7774999999999 50.84Q444.48599999999993 52.562 443.8709999999999 54.7555Q443.2559999999999 56.949 443.2559999999999 59.491V82.0Z"/><path d="M272.382 30.995999999999995V21.934999999999995H282.263V30.995999999999995Z" fill="#00AA86"/></g><path fill="#657C78" d="M118.988 483.36Q116.396 483.36 114.548 482.226Q112.7 481.092 111.71000000000001 479.06399999999996Q110.72 477.036 110.72 474.36Q110.72 471.684 111.71000000000001 469.656Q112.7 467.628 114.548 466.494Q116.396 465.36 118.988 465.36Q121.976 465.36 123.968 466.85400000000004Q125.96000000000001 468.348 126.764 470.88L123.848 471.684Q123.344 469.992 122.132 469.038Q120.92 468.084 118.988 468.084Q117.248 468.084 116.09 468.86400000000003Q114.932 469.644 114.35 471.054Q113.768 472.464 113.756 474.36Q113.756 476.256 114.338 477.666Q114.92 479.076 116.084 479.856Q117.248 480.636 118.988 480.636Q120.92 480.636 122.132 479.67600000000004Q123.344 478.716 123.848 477.036L126.764 477.84Q125.96000000000001 480.372 123.968 481.866Q121.976 483.36 118.988 483.36ZM135.12800000000001 483.36Q133.184 483.36 131.732 482.48400000000004Q130.28 481.608 129.482 480.06600000000003Q128.684 478.524 128.684 476.52Q128.684 474.48 129.5 472.944Q130.316 471.408 131.768 470.544Q133.22 469.68 135.12800000000001 469.68Q137.084 469.68 138.536 470.55600000000004Q139.988 471.432 140.792 472.97400000000005Q141.596 474.516 141.596 476.52Q141.596 478.536 140.786 480.078Q139.976 481.62 138.524 482.49Q137.072 483.36 135.12800000000001 483.36ZM135.12800000000001 480.648Q136.856 480.648 137.696 479.496Q138.536 478.344 138.536 476.52Q138.536 474.636 137.684 473.514Q136.832 472.392 135.12800000000001 472.392Q133.964 472.392 133.214 472.914Q132.464 473.436 132.10399999999998 474.366Q131.744 475.296 131.744 476.52Q131.744 478.404 132.602 479.526Q133.46 480.648 135.12800000000001 480.648ZM153.20000000000002 483.0V476.76Q153.20000000000002 476.148 153.116 475.404Q153.032 474.66 152.726 473.97Q152.42000000000002 473.28 151.81400000000002 472.836Q151.20800000000003 472.392 150.17600000000002 472.392Q149.62400000000002 472.392 149.084 472.572Q148.544 472.752 148.106 473.19Q147.668 473.628 147.404 474.39Q147.14000000000001 475.152 147.14000000000001 476.34L145.424 475.608Q145.424 473.952 146.066 472.608Q146.708 471.264 147.95600000000002 470.466Q149.204 469.668 151.02800000000002 469.668Q152.46800000000002 469.668 153.404 470.148Q154.34 470.628 154.892 471.37199999999996Q155.44400000000002 472.116 155.70800000000003 472.956Q155.972 473.796 156.05 474.546Q156.12800000000001 475.296 156.12800000000001 475.764V483.0ZM144.21200000000002 483.0V470.04H146.792V474.06H147.14000000000001V483.0ZM168.21200000000002 483.0V476.76Q168.21200000000002 476.148 168.12800000000001 475.404Q168.044 474.66 167.738 473.97Q167.43200000000002 473.28 166.82600000000002 472.836Q166.22000000000003 472.392 165.18800000000002 472.392Q164.63600000000002 472.392 164.096 472.572Q163.556 472.752 163.118 473.19Q162.68 473.628 162.416 474.39Q162.15200000000002 475.152 162.15200000000002 476.34L160.436 475.608Q160.436 473.952 161.078 472.608Q161.72 471.264 162.96800000000002 470.466Q164.216 469.668 166.04000000000002 469.668Q167.48000000000002 469.668 168.416 470.148Q169.352 470.628 169.904 471.37199999999996Q170.45600000000002 472.116 170.72000000000003 472.956Q170.984 473.796 171.062 474.546Q171.14000000000001 475.296 171.14000000000001 475.764V483.0ZM159.22400000000002 483.0V470.04H161.804V474.06H162.15200000000002V483.0ZM180.15200000000002 483.36Q178.18400000000003 483.36 176.69600000000003 482.50800000000004Q175.20800000000003 481.656 174.37400000000002 480.144Q173.54000000000002 478.632 173.54000000000002 476.664Q173.54000000000002 474.54 174.35600000000002 472.97400000000005Q175.17200000000003 471.408 176.62400000000002 470.544Q178.07600000000002 469.68 179.984 469.68Q182.0 469.68 183.41000000000003 470.622Q184.82000000000002 471.564 185.50400000000002 473.28Q186.18800000000002 474.996 186.02 477.324H183.15200000000002V476.268Q183.14000000000001 474.156 182.40800000000002 473.18399999999997Q181.67600000000002 472.212 180.104 472.212Q178.328 472.212 177.464 473.31Q176.60000000000002 474.408 176.60000000000002 476.52Q176.60000000000002 478.488 177.464 479.568Q178.328 480.648 179.984 480.648Q181.05200000000002 480.648 181.82600000000002 480.174Q182.60000000000002 479.7 183.02 478.8L185.876 479.664Q185.132 481.416 183.578 482.38800000000003Q182.024 483.36 180.15200000000002 483.36ZM175.68800000000002 477.324V475.14H184.604V477.324ZM194.336 483.36Q192.33200000000002 483.36 190.91600000000003 482.466Q189.50000000000003 481.572 188.75000000000003 480.024Q188.00000000000003 478.476 187.98800000000003 476.52Q188.00000000000003 474.528 188.77400000000003 472.986Q189.54800000000003 471.444 190.97600000000003 470.562Q192.40400000000002 469.68 194.372 469.68Q196.58 469.68 198.11 470.78999999999996Q199.64000000000001 471.9 200.10800000000003 473.82L197.228 474.6Q196.89200000000002 473.556 196.11200000000002 472.974Q195.33200000000002 472.392 194.336 472.392Q193.20800000000003 472.392 192.47600000000003 472.926Q191.74400000000003 473.46 191.39600000000002 474.39599999999996Q191.04800000000003 475.332 191.04800000000003 476.52Q191.04800000000003 478.368 191.87600000000003 479.50800000000004Q192.704 480.648 194.336 480.648Q195.48800000000003 480.648 196.15400000000002 480.12Q196.82000000000002 479.592 197.156 478.596L200.10800000000003 479.256Q199.508 481.236 198.008 482.298Q196.508 483.36 194.336 483.36ZM210.11600000000004 483.0Q208.83200000000002 483.24 207.60200000000003 483.21000000000004Q206.37200000000004 483.18 205.40000000000003 482.754Q204.42800000000003 482.328 203.92400000000004 481.404Q203.48000000000002 480.564 203.45600000000002 479.688Q203.43200000000004 478.812 203.43200000000004 477.708V466.44H206.31200000000004V477.54Q206.31200000000004 478.32 206.33000000000004 478.908Q206.34800000000004 479.496 206.57600000000002 479.868Q207.00800000000004 480.588 207.95600000000002 480.672Q208.90400000000002 480.756 210.11600000000004 480.576ZM201.08000000000004 472.308V470.04H210.11600000000004V472.308ZM213.15200000000002 468.072V465.42H216.04400000000004V468.072ZM213.15200000000002 483.0V470.04H216.04400000000004V483.0ZM225.36800000000002 483.36Q223.42400000000004 483.36 221.97200000000004 482.48400000000004Q220.52000000000004 481.608 219.72200000000004 480.06600000000003Q218.92400000000004 478.524 218.92400000000004 476.52Q218.92400000000004 474.48 219.74000000000004 472.944Q220.55600000000004 471.408 222.00800000000004 470.544Q223.46000000000004 469.68 225.36800000000002 469.68Q227.324 469.68 228.776 470.55600000000004Q230.22800000000004 471.432 231.03200000000004 472.97400000000005Q231.836 474.516 231.836 476.52Q231.836 478.536 231.026 480.078Q230.21600000000004 481.62 228.76400000000004 482.49Q227.31200000000004 483.36 225.36800000000002 483.36ZM225.36800000000002 480.648Q227.09600000000003 480.648 227.93600000000004 479.496Q228.77600000000004 478.344 228.77600000000004 476.52Q228.77600000000004 474.636 227.92400000000004 473.514Q227.07200000000003 472.392 225.36800000000002 472.392Q224.20400000000004 472.392 223.45400000000004 472.914Q222.70400000000004 473.436 222.34400000000005 474.366Q221.98400000000004 475.296 221.98400000000004 476.52Q221.98400000000004 478.404 222.84200000000004 479.526Q223.70000000000002 480.648 225.36800000000002 480.648ZM243.44000000000003 483.0V476.76Q243.44000000000003 476.148 243.35600000000002 475.404Q243.27200000000002 474.66 242.966 473.97Q242.66000000000003 473.28 242.05400000000003 472.836Q241.44800000000004 472.392 240.41600000000003 472.392Q239.86400000000003 472.392 239.324 472.572Q238.78400000000002 472.752 238.346 473.19Q237.90800000000002 473.628 237.644 474.39Q237.38000000000002 475.152 237.38000000000002 476.34L235.66400000000002 475.608Q235.66400000000002 473.952 236.306 472.608Q236.948 471.264 238.19600000000003 470.466Q239.44400000000002 469.668 241.26800000000003 469.668Q242.70800000000003 469.668 243.644 470.148Q244.58 470.628 245.132 471.37199999999996Q245.68400000000003 472.116 245.94800000000004 472.956Q246.21200000000002 473.796 246.29000000000002 474.546Q246.36800000000002 475.296 246.36800000000002 475.764V483.0ZM234.45200000000003 483.0V470.04H237.032V474.06H237.38000000000002V483.0Z"/><path fill="#657C78" d="M878.988 483.36Q876.396 483.36 874.548 482.226Q872.7 481.092 871.71 479.06399999999996Q870.72 477.036 870.72 474.36Q870.72 471.684 871.71 469.656Q872.7 467.628 874.548 466.494Q876.396 465.36 878.988 465.36Q881.976 465.36 883.9680000000001 466.85400000000004Q885.96 468.348 886.764 470.88L883.848 471.684Q883.344 469.992 882.1320000000001 469.038Q880.92 468.084 878.988 468.084Q877.248 468.084 876.09 468.86400000000003Q874.932 469.644 874.35 471.054Q873.768 472.464 873.756 474.36Q873.756 476.256 874.338 477.666Q874.92 479.076 876.0840000000001 479.856Q877.248 480.636 878.988 480.636Q880.92 480.636 882.1320000000001 479.67600000000004Q883.344 478.716 883.848 477.036L886.764 477.84Q885.96 480.372 883.9680000000001 481.866Q881.976 483.36 878.988 483.36ZM895.128 483.36Q893.1840000000001 483.36 891.7320000000001 482.48400000000004Q890.2800000000001 481.608 889.4820000000001 480.06600000000003Q888.6840000000001 478.524 888.6840000000001 476.52Q888.6840000000001 474.48 889.5 472.944Q890.316 471.408 891.768 470.544Q893.22 469.68 895.128 469.68Q897.0840000000001 469.68 898.5360000000001 470.55600000000004Q899.988 471.432 900.792 472.97400000000005Q901.596 474.516 901.596 476.52Q901.596 478.536 900.7860000000001 480.078Q899.976 481.62 898.524 482.49Q897.072 483.36 895.128 483.36ZM895.128 480.648Q896.856 480.648 897.696 479.496Q898.5360000000001 478.344 898.5360000000001 476.52Q898.5360000000001 474.636 897.684 473.514Q896.832 472.392 895.128 472.392Q893.964 472.392 893.214 472.914Q892.464 473.436 892.104 474.366Q891.744 475.296 891.744 476.52Q891.744 478.404 892.6020000000001 479.526Q893.46 480.648 895.128 480.648ZM913.2 483.0V476.76Q913.2 476.148 913.116 475.404Q913.032 474.66 912.7260000000001 473.97Q912.4200000000001 473.28 911.8140000000001 472.836Q911.2080000000001 472.392 910.176 472.392Q909.624 472.392 909.0840000000001 472.572Q908.5440000000001 472.752 908.106 473.19Q907.668 473.628 907.404 474.39Q907.14 475.152 907.14 476.34L905.4240000000001 475.608Q905.4240000000001 473.952 906.066 472.608Q906.7080000000001 471.264 907.9560000000001 470.466Q909.2040000000001 469.668 911.028 469.668Q912.4680000000001 469.668 913.404 470.148Q914.34 470.628 914.892 471.37199999999996Q915.4440000000001 472.116 915.7080000000001 472.956Q915.9720000000001 473.796 916.0500000000001 474.546Q916.128 475.296 916.128 475.764V483.0ZM904.212 483.0V470.04H906.792V474.06H907.14V483.0ZM928.212 483.0V476.76Q928.212 476.148 928.1279999999999 475.404Q928.044 474.66 927.738 473.97Q927.432 473.28 926.826 472.836Q926.22 472.392 925.188 472.392Q924.636 472.392 924.096 472.572Q923.556 472.752 923.1179999999999 473.19Q922.68 473.628 922.4159999999999 474.39Q922.1519999999999 475.152 922.1519999999999 476.34L920.436 475.608Q920.436 473.952 921.078 472.608Q921.72 471.264 922.9680000000001 470.466Q924.216 469.668 926.04 469.668Q927.48 469.668 928.4159999999999 470.148Q929.352 470.628 929.904 471.37199999999996Q930.456 472.116 930.72 472.956Q930.984 473.796 931.062 474.546Q931.14 475.296 931.14 475.764V483.0ZM919.2239999999999 483.0V470.04H921.804V474.06H922.1519999999999V483.0ZM940.1519999999999 483.36Q938.184 483.36 936.6959999999999 482.50800000000004Q935.208 481.656 934.374 480.144Q933.54 478.632 933.54 476.664Q933.54 474.54 934.356 472.97400000000005Q935.1719999999999 471.408 936.6239999999999 470.544Q938.0759999999999 469.68 939.9839999999999 469.68Q941.9999999999999 469.68 943.4099999999999 470.622Q944.8199999999999 471.564 945.5039999999999 473.28Q946.1879999999999 474.996 946.02 477.324H943.1519999999999V476.268Q943.1399999999999 474.156 942.4079999999999 473.18399999999997Q941.6759999999999 472.212 940.1039999999999 472.212Q938.328 472.212 937.4639999999999 473.31Q936.5999999999999 474.408 936.5999999999999 476.52Q936.5999999999999 478.488 937.4639999999999 479.568Q938.328 480.648 939.9839999999999 480.648Q941.0519999999999 480.648 941.8259999999999 480.174Q942.5999999999999 479.7 943.02 478.8L945.876 479.664Q945.132 481.416 943.578 482.38800000000003Q942.0239999999999 483.36 940.1519999999999 483.36ZM935.6879999999999 477.324V475.14H944.6039999999999V477.324ZM954.3359999999999 483.36Q952.3319999999999 483.36 950.9159999999999 482.466Q949.4999999999999 481.572 948.7499999999999 480.024Q947.9999999999999 478.476 947.9879999999999 476.52Q947.9999999999999 474.528 948.7739999999999 472.986Q949.5479999999999 471.444 950.9759999999999 470.562Q952.4039999999999 469.68 954.372 469.68Q956.5799999999999 469.68 958.1099999999999 470.78999999999996Q959.6399999999999 471.9 960.108 473.82L957.228 474.6Q956.8919999999999 473.556 956.1119999999999 472.974Q955.3319999999999 472.392 954.3359999999999 472.392Q953.2079999999999 472.392 952.4759999999999 472.926Q951.7439999999999 473.46 951.396 474.39599999999996Q951.0479999999999 475.332 951.0479999999999 476.52Q951.0479999999999 478.368 951.876 479.50800000000004Q952.704 480.648 954.3359999999999 480.648Q955.4879999999999 480.648 956.154 480.12Q956.8199999999999 479.592 957.156 478.596L960.108 479.256Q959.5079999999999 481.236 958.0079999999999 482.298Q956.5079999999999 483.36 954.3359999999999 483.36ZM970.1159999999999 483.0Q968.8319999999999 483.24 967.6019999999999 483.21000000000004Q966.372 483.18 965.3999999999999 482.754Q964.4279999999999 482.328 963.9239999999999 481.404Q963.4799999999999 480.564 963.4559999999999 479.688Q963.4319999999999 478.812 963.4319999999999 477.708V466.44H966.3119999999999V477.54Q966.3119999999999 478.32 966.3299999999999 478.908Q966.348 479.496 966.5759999999999 479.868Q967.0079999999999 480.588 967.9559999999999 480.672Q968.9039999999999 480.756 970.1159999999999 480.576ZM961.0799999999999 472.308V470.04H970.1159999999999V472.308ZM973.1519999999999 468.072V465.42H976.044V468.072ZM973.1519999999999 483.0V470.04H976.044V483.0ZM985.3679999999999 483.36Q983.424 483.36 981.972 482.48400000000004Q980.52 481.608 979.722 480.06600000000003Q978.924 478.524 978.924 476.52Q978.924 474.48 979.74 472.944Q980.5559999999999 471.408 982.0079999999999 470.544Q983.4599999999999 469.68 985.3679999999999 469.68Q987.324 469.68 988.776 470.55600000000004Q990.228 471.432 991.0319999999999 472.97400000000005Q991.8359999999999 474.516 991.8359999999999 476.52Q991.8359999999999 478.536 991.0259999999998 480.078Q990.2159999999999 481.62 988.7639999999999 482.49Q987.3119999999999 483.36 985.3679999999999 483.36ZM985.3679999999999 480.648Q987.0959999999999 480.648 987.9359999999999 479.496Q988.776 478.344 988.776 476.52Q988.776 474.636 987.924 473.514Q987.0719999999999 472.392 985.3679999999999 472.392Q984.204 472.392 983.454 472.914Q982.704 473.436 982.3439999999999 474.366Q981.9839999999999 475.296 981.9839999999999 476.52Q981.9839999999999 478.404 982.8419999999999 479.526Q983.6999999999999 480.648 985.3679999999999 480.648ZM1003.4399999999999 483.0V476.76Q1003.4399999999999 476.148 1003.356 475.404Q1003.2719999999999 474.66 1002.9659999999999 473.97Q1002.66 473.28 1002.054 472.836Q1001.448 472.392 1000.4159999999999 472.392Q999.8639999999999 472.392 999.324 472.572Q998.784 472.752 998.346 473.19Q997.9079999999999 473.628 997.6439999999999 474.39Q997.3799999999999 475.152 997.3799999999999 476.34L995.664 475.608Q995.664 473.952 996.306 472.608Q996.948 471.264 998.1959999999999 470.466Q999.444 469.668 1001.2679999999999 469.668Q1002.708 469.668 1003.644 470.148Q1004.5799999999999 470.628 1005.132 471.37199999999996Q1005.684 472.116 1005.948 472.956Q1006.212 473.796 1006.29 474.546Q1006.3679999999999 475.296 1006.3679999999999 475.764V483.0ZM994.4519999999999 483.0V470.04H997.0319999999999V474.06H997.3799999999999V483.0ZM1018.3439999999999 479.784V475.488H1014.048V473.22H1018.3439999999999V468.936H1020.612V473.22H1024.884V475.488H1020.612V479.784ZM1037.9999999999998 483.36Q1036.2119999999998 483.36 1034.8799999999997 482.46000000000004Q1033.5479999999998 481.56 1032.8159999999998 480.012Q1032.0839999999998 478.464 1032.0839999999998 476.52Q1032.0839999999998 474.552 1032.8219999999997 473.01Q1033.5599999999997 471.468 1034.9159999999997 470.574Q1036.2719999999997 469.68 1038.1079999999997 469.68Q1039.956 469.68 1041.2099999999998 470.574Q1042.4639999999997 471.468 1043.1119999999996 473.016Q1043.7599999999998 474.564 1043.7599999999998 476.52Q1043.7599999999998 478.452 1043.1119999999996 480.006Q1042.4639999999997 481.56 1041.1799999999998 482.46000000000004Q1039.8959999999997 483.36 1037.9999999999998 483.36ZM1038.4439999999997 480.768Q1039.6079999999997 480.768 1040.3219999999997 480.234Q1041.0359999999998 479.7 1041.3659999999998 478.74Q1041.6959999999997 477.78 1041.6959999999997 476.52Q1041.6959999999997 475.248 1041.3659999999998 474.294Q1041.0359999999998 473.34 1040.3399999999997 472.806Q1039.6439999999998 472.272 1038.5399999999997 472.272Q1037.3759999999997 472.272 1036.62 472.842Q1035.8639999999998 473.412 1035.504 474.378Q1035.1439999999998 475.344 1035.1439999999998 476.52Q1035.1439999999998 477.708 1035.4979999999998 478.674Q1035.8519999999999 479.64 1036.5839999999998 480.20399999999995Q1037.3159999999998 480.768 1038.4439999999997 480.768ZM1041.6959999999997 483.0V473.904H1041.3359999999998V465.72H1044.2519999999997V483.0ZM1047.8519999999999 468.072V465.42H1050.7439999999997V468.072ZM1047.8519999999999 483.0V470.04H1050.7439999999997V483.0ZM1054.3439999999998 483.0V470.04H1056.8999999999999V473.196L1056.5879999999997 472.788Q1056.8279999999997 472.14 1057.2299999999998 471.606Q1057.6319999999998 471.072 1058.1959999999997 470.724Q1058.6759999999997 470.4 1059.2579999999998 470.214Q1059.8399999999997 470.028 1060.4519999999998 469.986Q1061.0639999999999 469.944 1061.6399999999999 470.04V472.74Q1061.0639999999999 472.572 1060.3139999999999 472.632Q1059.5639999999999 472.692 1058.9639999999997 473.052Q1058.3639999999998 473.376 1057.9859999999999 473.88Q1057.6079999999997 474.384 1057.4279999999999 475.026Q1057.2479999999998 475.668 1057.2479999999998 476.412V483.0ZM1069.8119999999997 483.36Q1067.8439999999998 483.36 1066.3559999999998 482.50800000000004Q1064.8679999999997 481.656 1064.0339999999997 480.144Q1063.1999999999998 478.632 1063.1999999999998 476.664Q1063.1999999999998 474.54 1064.0159999999998 472.97400000000005Q1064.8319999999999 471.408 1066.2839999999999 470.544Q1067.7359999999999 469.68 1069.6439999999998 469.68Q1071.6599999999999 469.68 1073.0699999999997 470.622Q1074.4799999999998 471.564 1075.1639999999998 473.28Q1075.8479999999997 474.996 1075.6799999999998 477.324H1072.8119999999997V476.268Q1072.7999999999997 474.156 1072.0679999999998 473.18399999999997Q1071.3359999999998 472.212 1069.7639999999997 472.212Q1067.9879999999998 472.212 1067.1239999999998 473.31Q1066.2599999999998 474.408 1066.2599999999998 476.52Q1066.2599999999998 478.488 1067.1239999999998 479.568Q1067.9879999999998 480.648 1069.6439999999998 480.648Q1070.7119999999998 480.648 1071.4859999999999 480.174Q1072.2599999999998 479.7 1072.6799999999998 478.8L1075.5359999999998 479.664Q1074.7919999999997 481.416 1073.2379999999998 482.38800000000003Q1071.6839999999997 483.36 1069.8119999999997 483.36ZM1065.3479999999997 477.324V475.14H1074.2639999999997V477.324ZM1083.9959999999999 483.36Q1081.992 483.36 1080.576 482.466Q1079.1599999999999 481.572 1078.4099999999999 480.024Q1077.6599999999999 478.476 1077.648 476.52Q1077.6599999999999 474.528 1078.4339999999997 472.986Q1079.2079999999999 471.444 1080.636 470.562Q1082.0639999999999 469.68 1084.032 469.68Q1086.2399999999998 469.68 1087.77 470.78999999999996Q1089.3 471.9 1089.7679999999998 473.82L1086.888 474.6Q1086.552 473.556 1085.772 472.974Q1084.992 472.392 1083.9959999999999 472.392Q1082.868 472.392 1082.136 472.926Q1081.4039999999998 473.46 1081.0559999999998 474.39599999999996Q1080.7079999999999 475.332 1080.7079999999999 476.52Q1080.7079999999999 478.368 1081.5359999999998 479.50800000000004Q1082.3639999999998 480.648 1083.9959999999999 480.648Q1085.148 480.648 1085.8139999999999 480.12Q1086.4799999999998 479.592 1086.8159999999998 478.596L1089.7679999999998 479.256Q1089.168 481.236 1087.668 482.298Q1086.168 483.36 1083.9959999999999 483.36ZM1099.7759999999998 483.0Q1098.4919999999997 483.24 1097.2619999999997 483.21000000000004Q1096.0319999999997 483.18 1095.0599999999997 482.754Q1094.0879999999997 482.328 1093.5839999999998 481.404Q1093.1399999999999 480.564 1093.116 479.688Q1093.0919999999999 478.812 1093.0919999999999 477.708V466.44H1095.9719999999998V477.54Q1095.9719999999998 478.32 1095.9899999999998 478.908Q1096.0079999999998 479.496 1096.2359999999999 479.868Q1096.6679999999997 480.588 1097.6159999999998 480.672Q1098.5639999999999 480.756 1099.7759999999998 480.576ZM1090.7399999999998 472.308V470.04H1099.7759999999998V472.308ZM1102.812 468.072V465.42H1105.7039999999997V468.072ZM1102.812 483.0V470.04H1105.7039999999997V483.0ZM1115.0279999999998 483.36Q1113.0839999999998 483.36 1111.6319999999998 482.48400000000004Q1110.1799999999998 481.608 1109.3819999999998 480.06600000000003Q1108.5839999999998 478.524 1108.5839999999998 476.52Q1108.5839999999998 474.48 1109.3999999999999 472.944Q1110.216 471.408 1111.668 470.544Q1113.12 469.68 1115.0279999999998 469.68Q1116.9839999999997 469.68 1118.4359999999997 470.55600000000004Q1119.8879999999997 471.432 1120.6919999999998 472.97400000000005Q1121.4959999999999 474.516 1121.4959999999999 476.52Q1121.4959999999999 478.536 1120.6859999999997 480.078Q1119.8759999999997 481.62 1118.4239999999998 482.49Q1116.9719999999998 483.36 1115.0279999999998 483.36ZM1115.0279999999998 480.648Q1116.7559999999999 480.648 1117.5959999999998 479.496Q1118.4359999999997 478.344 1118.4359999999997 476.52Q1118.4359999999997 474.636 1117.5839999999998 473.514Q1116.7319999999997 472.392 1115.0279999999998 472.392Q1113.8639999999998 472.392 1113.1139999999998 472.914Q1112.3639999999998 473.436 1112.004 474.366Q1111.6439999999998 475.296 1111.6439999999998 476.52Q1111.6439999999998 478.404 1112.502 479.526Q1113.36 480.648 1115.0279999999998 480.648ZM1133.1 483.0V476.76Q1133.1 476.148 1133.016 475.404Q1132.932 474.66 1132.626 473.97Q1132.32 473.28 1131.714 472.836Q1131.108 472.392 1130.0759999999998 472.392Q1129.524 472.392 1128.984 472.572Q1128.444 472.752 1128.0059999999999 473.19Q1127.568 473.628 1127.304 474.39Q1127.04 475.152 1127.04 476.34L1125.3239999999998 475.608Q1125.3239999999998 473.952 1125.966 472.608Q1126.608 471.264 1127.8559999999998 470.466Q1129.1039999999998 469.668 1130.9279999999999 469.668Q1132.368 469.668 1133.304 470.148Q1134.24 470.628 1134.792 471.37199999999996Q1135.3439999999998 472.116 1135.6079999999997 472.956Q1135.8719999999998 473.796 1135.9499999999998 474.546Q1136.0279999999998 475.296 1136.0279999999998 475.764V483.0ZM1124.1119999999999 483.0V470.04H1126.692V474.06H1127.04V483.0ZM1148.004 479.784V475.488H1143.7079999999999V473.22H1148.004V468.936H1150.2719999999997V473.22H1154.5439999999999V475.488H1150.2719999999997V479.784ZM1167.6599999999996 483.36Q1165.8719999999996 483.36 1164.5399999999995 482.46000000000004Q1163.2079999999996 481.56 1162.4759999999997 480.012Q1161.7439999999997 478.464 1161.7439999999997 476.52Q1161.7439999999997 474.552 1162.4819999999995 473.01Q1163.2199999999996 471.468 1164.5759999999996 470.574Q1165.9319999999996 469.68 1167.7679999999996 469.68Q1169.6159999999998 469.68 1170.8699999999997 470.574Q1172.1239999999996 471.468 1172.7719999999995 473.016Q1173.4199999999996 474.564 1173.4199999999996 476.52Q1173.4199999999996 478.452 1172.7719999999995 480.006Q1172.1239999999996 481.56 1170.8399999999997 482.46000000000004Q1169.5559999999996 483.36 1167.6599999999996 483.36ZM1168.1039999999996 480.768Q1169.2679999999996 480.768 1169.9819999999995 480.234Q1170.6959999999997 479.7 1171.0259999999996 478.74Q1171.3559999999995 477.78 1171.3559999999995 476.52Q1171.3559999999995 475.248 1171.0259999999996 474.294Q1170.6959999999997 473.34 1169.9999999999995 472.806Q1169.3039999999996 472.272 1168.1999999999996 472.272Q1167.0359999999996 472.272 1166.2799999999997 472.842Q1165.5239999999997 473.412 1165.1639999999998 474.378Q1164.8039999999996 475.344 1164.8039999999996 476.52Q1164.8039999999996 477.708 1165.1579999999997 478.674Q1165.5119999999997 479.64 1166.2439999999997 480.20399999999995Q1166.9759999999997 480.768 1168.1039999999996 480.768ZM1171.3559999999995 483.0V473.904H1170.9959999999996V465.72H1173.9119999999996V483.0ZM1180.8959999999997 483.36Q1179.4919999999997 483.36 1178.5199999999995 482.826Q1177.5479999999995 482.292 1177.0499999999997 481.404Q1176.5519999999997 480.516 1176.5519999999997 479.448Q1176.5519999999997 478.512 1176.8639999999996 477.762Q1177.1759999999997 477.012 1177.8239999999996 476.466Q1178.4719999999998 475.92 1179.5039999999997 475.572Q1180.2839999999997 475.32 1181.3339999999996 475.116Q1182.3839999999996 474.912 1183.6139999999996 474.738Q1184.8439999999996 474.564 1186.1879999999996 474.36L1185.1559999999997 474.948Q1185.1679999999997 473.604 1184.5559999999996 472.96799999999996Q1183.9439999999997 472.332 1182.4919999999997 472.332Q1181.6159999999995 472.332 1180.7999999999997 472.74Q1179.9839999999997 473.148 1179.6599999999996 474.144L1177.0199999999998 473.316Q1177.4999999999995 471.672 1178.8499999999995 470.67600000000004Q1180.1999999999996 469.68 1182.4919999999997 469.68Q1184.2199999999996 469.68 1185.5339999999997 470.244Q1186.8479999999997 470.808 1187.4839999999997 472.092Q1187.8319999999997 472.776 1187.9039999999995 473.49Q1187.9759999999997 474.204 1187.9759999999997 475.044V483.0H1185.4439999999997V480.192L1185.8639999999996 480.648Q1184.9879999999996 482.052 1183.8179999999998 482.706Q1182.6479999999997 483.36 1180.8959999999997 483.36ZM1181.4719999999998 481.056Q1182.4559999999997 481.056 1183.1519999999996 480.70799999999997Q1183.8479999999997 480.36 1184.2619999999997 479.856Q1184.6759999999997 479.352 1184.8199999999997 478.908Q1185.0479999999995 478.356 1185.0779999999995 477.642Q1185.1079999999997 476.928 1185.1079999999997 476.484L1185.9959999999996 476.748Q1184.6879999999996 476.952 1183.7519999999995 477.108Q1182.8159999999996 477.264 1182.1439999999998 477.40200000000004Q1181.4719999999998 477.54 1180.9559999999997 477.708Q1180.4519999999995 477.888 1180.1039999999996 478.128Q1179.7559999999996 478.368 1179.5699999999997 478.68Q1179.3839999999996 478.992 1179.3839999999996 479.412Q1179.3839999999996 479.892 1179.6239999999996 480.25800000000004Q1179.8639999999996 480.624 1180.3259999999996 480.84000000000003Q1180.7879999999996 481.056 1181.4719999999998 481.056ZM1198.6919999999998 483.0Q1197.4079999999997 483.24 1196.1779999999997 483.21000000000004Q1194.9479999999996 483.18 1193.9759999999997 482.754Q1193.0039999999997 482.328 1192.4999999999998 481.404Q1192.0559999999998 480.564 1192.0319999999997 479.688Q1192.0079999999998 478.812 1192.0079999999998 477.708V466.44H1194.8879999999997V477.54Q1194.8879999999997 478.32 1194.9059999999997 478.908Q1194.9239999999998 479.496 1195.1519999999998 479.868Q1195.5839999999996 480.588 1196.5319999999997 480.672Q1197.4799999999998 480.756 1198.6919999999998 480.576ZM1189.6559999999997 472.308V470.04H1198.6919999999998V472.308ZM1205.1119999999999 483.36Q1203.7079999999999 483.36 1202.7359999999999 482.826Q1201.7639999999997 482.292 1201.2659999999996 481.404Q1200.7679999999998 480.516 1200.7679999999998 479.448Q1200.7679999999998 478.512 1201.08 477.762Q1201.3919999999998 477.012 1202.04 476.466Q1202.6879999999999 475.92 1203.7199999999998 475.572Q1204.4999999999998 475.32 1205.5499999999997 475.116Q1206.5999999999997 474.912 1207.8299999999997 474.738Q1209.0599999999997 474.564 1210.4039999999998 474.36L1209.3719999999998 474.948Q1209.3839999999998 473.604 1208.772 472.96799999999996Q1208.1599999999999 472.332 1206.7079999999999 472.332Q1205.8319999999997 472.332 1205.0159999999996 472.74Q1204.1999999999998 473.148 1203.8759999999997 474.144L1201.2359999999999 473.316Q1201.7159999999997 471.672 1203.0659999999998 470.67600000000004Q1204.4159999999997 469.68 1206.7079999999999 469.68Q1208.4359999999997 469.68 1209.7499999999998 470.244Q1211.0639999999999 470.808 1211.6999999999998 472.092Q1212.0479999999998 472.776 1212.12 473.49Q1212.1919999999998 474.204 1212.1919999999998 475.044V483.0H1209.6599999999999V480.192L1210.0799999999997 480.648Q1209.2039999999997 482.052 1208.0339999999997 482.706Q1206.8639999999998 483.36 1205.1119999999999 483.36ZM1205.6879999999999 481.056Q1206.6719999999998 481.056 1207.368 480.70799999999997Q1208.0639999999999 480.36 1208.4779999999998 479.856Q1208.8919999999998 479.352 1209.0359999999998 478.908Q1209.2639999999997 478.356 1209.2939999999999 477.642Q1209.3239999999998 476.928 1209.3239999999998 476.484L1210.2119999999998 476.748Q1208.9039999999998 476.952 1207.9679999999998 477.108Q1207.0319999999997 477.264 1206.3599999999997 477.40200000000004Q1205.6879999999999 477.54 1205.1719999999998 477.708Q1204.6679999999997 477.888 1204.3199999999997 478.128Q1203.9719999999998 478.368 1203.7859999999996 478.68Q1203.5999999999997 478.992 1203.5999999999997 479.412Q1203.5999999999997 479.892 1203.8399999999997 480.25800000000004Q1204.0799999999997 480.624 1204.5419999999997 480.84000000000003Q1205.0039999999997 481.056 1205.6879999999999 481.056Z"/><path fill="#657C78" d="M75.757 642.255Q74.7625 642.255 74.074 641.87675Q73.3855 641.4985 73.03275 640.8695Q72.68 640.2405 72.68 639.484Q72.68 638.821 72.90100000000001 638.28975Q73.122 637.7585 73.581 637.37175Q74.04 636.985 74.771 636.7385Q75.3235 636.56 76.06725 636.4155Q76.811 636.271 77.68225000000001 636.14775Q78.5535 636.0245 79.5055 635.88L78.7745 636.2965Q78.783 635.3445 78.3495 634.894Q77.916 634.4435 76.8875 634.4435Q76.267 634.4435 75.689 634.7325Q75.111 635.0215 74.8815 635.727L73.0115 635.1405Q73.3515 633.976 74.30775 633.2705000000001Q75.264 632.565 76.8875 632.565Q78.1115 632.565 79.04225 632.9645Q79.973 633.364 80.4235 634.2735Q80.67 634.758 80.721 635.2637500000001Q80.772 635.7695 80.772 636.3645V642.0H78.9785V640.011L79.276 640.334Q78.6555 641.3285 77.82675 641.79175Q76.998 642.255 75.757 642.255ZM76.165 640.623Q76.862 640.623 77.35499999999999 640.3765000000001Q77.848 640.13 78.14125 639.773Q78.4345 639.416 78.5365 639.1015Q78.69800000000001 638.7105 78.71925 638.20475Q78.7405 637.699 78.7405 637.3845L79.3695 637.5715Q78.443 637.716 77.78 637.8265Q77.117 637.937 76.641 638.03475Q76.165 638.1325 75.7995 638.2515Q75.4425 638.379 75.196 638.549Q74.9495 638.719 74.81775 638.94Q74.686 639.161 74.686 639.4585Q74.686 639.7985 74.856 640.0577499999999Q75.026 640.317 75.35325 640.47Q75.6805 640.623 76.165 640.623ZM87.06250000000001 642.255Q85.796 642.255 84.8525 641.6175000000001Q83.909 640.98 83.3905 639.8835Q82.87200000000001 638.787 82.87200000000001 637.41Q82.87200000000001 636.016 83.39475000000002 634.9237499999999Q83.9175 633.8315 84.87800000000001 633.19825Q85.83850000000001 632.565 87.13900000000001 632.565Q88.44800000000001 632.565 89.33625 633.19825Q90.2245 633.8315 90.68350000000001 634.928Q91.14250000000001 636.0245 91.14250000000001 637.41Q91.14250000000001 638.7785 90.68350000000001 639.87925Q90.2245 640.98 89.315 641.6175000000001Q88.4055 642.255 87.06250000000001 642.255ZM87.37700000000001 640.419Q88.20150000000001 640.419 88.70725000000002 640.04075Q89.21300000000001 639.6625 89.44675000000001 638.9825000000001Q89.68050000000001 638.3025 89.68050000000001 637.41Q89.68050000000001 636.509 89.44675000000001 635.83325Q89.21300000000001 635.1575 88.72 634.77925Q88.227 634.401 87.44500000000001 634.401Q86.6205 634.401 86.08500000000001 634.80475Q85.54950000000001 635.2085 85.2945 635.89275Q85.0395 636.577 85.0395 637.41Q85.0395 638.2515 85.29025000000001 638.93575Q85.54100000000001 639.62 86.05950000000001 640.0195Q86.578 640.419 87.37700000000001 640.419ZM89.68050000000001 642.0V635.557H89.42550000000001V629.76H91.49100000000001V642.0ZM94.441 642.0V629.505H96.4895V642.0ZM99.6095 631.426V629.5475H101.658V631.426ZM99.6095 642.0V632.82H101.658V642.0ZM110.9575 642.0V637.58Q110.9575 637.1465 110.898 636.6195Q110.8385 636.0925 110.62174999999999 635.60375Q110.40499999999999 635.115 109.97574999999999 634.8005Q109.5465 634.486 108.81549999999999 634.486Q108.4245 634.486 108.042 634.6134999999999Q107.6595 634.741 107.34924999999998 635.05125Q107.03899999999999 635.3615 106.85199999999999 635.90125Q106.66499999999999 636.441 106.66499999999999 637.2825L105.44949999999999 636.764Q105.44949999999999 635.591 105.90424999999999 634.639Q106.359 633.687 107.243 633.12175Q108.127 632.5565 109.419 632.5565Q110.439 632.5565 111.10199999999999 632.8965000000001Q111.76499999999999 633.2365 112.15599999999999 633.7635Q112.547 634.2905 112.734 634.8855Q112.92099999999999 635.4805 112.97625 636.01175Q113.0315 636.543 113.0315 636.8745V642.0ZM104.591 642.0V632.82H106.4185V635.6675H106.66499999999999V642.0ZM115.6245 642.0 115.6415 629.76H117.71549999999999V637.24L121.073 632.82H123.6315L120.07 637.41L123.9375 642.0H121.226L117.71549999999999 637.58V642.0ZM129.361 642.255Q127.967 642.255 126.91300000000001 641.6514999999999Q125.85900000000001 641.048 125.26825000000001 639.977Q124.67750000000001 638.906 124.67750000000001 637.512Q124.67750000000001 636.0075 125.25550000000001 634.89825Q125.8335 633.789 126.862 633.177Q127.8905 632.565 129.242 632.565Q130.67000000000002 632.565 131.66875 633.23225Q132.6675 633.8995 133.152 635.115Q133.6365 636.3305 133.5175 637.9795H131.486V637.2315Q131.4775 635.7355 130.959 635.047Q130.44050000000001 634.3585 129.327 634.3585Q128.06900000000002 634.3585 127.45700000000001 635.13625Q126.845 635.914 126.845 637.41Q126.845 638.804 127.45700000000001 639.569Q128.06900000000002 640.334 129.242 640.334Q129.9985 640.334 130.54675 639.99825Q131.095 639.6625 131.3925 639.025L133.4155 639.637Q132.8885 640.878 131.78775000000002 641.5665Q130.687 642.255 129.361 642.255ZM126.199 637.9795V636.4325H132.5145V637.9795ZM135.82150000000001 642.0V632.82H137.632V635.0555L137.41100000000003 634.7665Q137.58100000000002 634.3075 137.86575000000002 633.92925Q138.15050000000002 633.551 138.55 633.3045Q138.89000000000001 633.075 139.30225000000002 632.94325Q139.71450000000002 632.8115 140.14800000000002 632.78175Q140.5815 632.752 140.98950000000002 632.82V634.7325Q140.5815 634.6135 140.05025 634.656Q139.519 634.6985 139.09400000000002 634.9535Q138.669 635.183 138.40125 635.54Q138.13350000000003 635.897 138.00600000000003 636.35175Q137.87850000000003 636.8065 137.87850000000003 637.3335V642.0ZM143.3445 642.0V639.9005H145.44400000000002V642.0ZM150.51900000000003 642.0 147.71400000000003 632.803 149.72000000000003 632.82 151.51350000000002 638.7105 153.33250000000004 632.82H155.05800000000002L156.8685 638.7105L158.67050000000003 632.82H160.67650000000003L157.87150000000003 642.0H156.2735L154.19100000000003 635.6845L152.11700000000002 642.0ZM166.661 642.255Q165.28400000000002 642.255 164.2555 641.6345Q163.227 641.014 162.66175 639.92175Q162.09650000000002 638.8295 162.09650000000002 637.41Q162.09650000000002 635.965 162.67450000000002 634.877Q163.25250000000003 633.789 164.281 633.177Q165.3095 632.565 166.661 632.565Q168.0465 632.565 169.07500000000002 633.1855Q170.10350000000003 633.806 170.673 634.89825Q171.2425 635.9905 171.2425 637.41Q171.2425 638.838 170.66875000000002 639.93025Q170.09500000000003 641.0225 169.06650000000002 641.6387500000001Q168.038 642.255 166.661 642.255ZM166.661 640.334Q167.88500000000002 640.334 168.48000000000002 639.518Q169.07500000000002 638.702 169.07500000000002 637.41Q169.07500000000002 636.0755 168.47150000000002 635.28075Q167.86800000000002 634.486 166.661 634.486Q165.8365 634.486 165.30525 634.85575Q164.774 635.2255 164.519 635.8842500000001Q164.264 636.543 164.264 637.41Q164.264 638.7445 164.87175000000002 639.53925Q165.4795 640.334 166.661 640.334ZM173.51250000000002 642.0V632.82H175.323V635.0555L175.10200000000003 634.7665Q175.27200000000002 634.3075 175.55675000000002 633.92925Q175.84150000000002 633.551 176.241 633.3045Q176.58100000000002 633.075 176.99325000000002 632.94325Q177.40550000000002 632.8115 177.839 632.78175Q178.2725 632.752 178.68050000000002 632.82V634.7325Q178.2725 634.6135 177.74125 634.656Q177.21 634.6985 176.78500000000003 634.9535Q176.36 635.183 176.09225000000004 635.54Q175.82450000000003 635.897 175.69700000000003 636.35175Q175.56950000000003 636.8065 175.56950000000003 637.3335V642.0ZM180.6785 642.0 180.6955 629.76H182.76950000000002V637.24L186.127 632.82H188.68550000000002L185.12400000000002 637.41L188.9915 642.0H186.28L182.76950000000002 637.58V642.0Z"/></svg>